#!OML:ASF E:\Mandelcareful walks\Project 1\Capture day 1\Session 1\Subject1.ASF
:FULLY-SPECIFIED
:DEGREES
532
root 7.09458 16.3583 -4.52962 -165.634 105.096 -187.564
lowerback 15.6667 2.68458 -9.37977
upperback 3.80997 2.1006 -2.04505
thorax -4.93815 1.19336 2.69515
lowerneck -29.4581 5.51389 0.825612
upperneck 15.4141 9.04674 -7.85593
head 10.1239 3.25483 -1.41225
rclavicle 1.66979e-014 -5.32743e-014
rhumerus -28.2178 18.7473 -90.1251
rradius 49.7919
rwrist -28.7696
rhand -12.2075 -28.4439
rfingers 7.12502
rthumb 13.8571 -57.9623
lclavicle 1.66979e-014 -5.32743e-014
lhumerus -9.3334 -51.7822 66.3046
lradius 59.8313
lwrist 3.19712
lhand -11.2262 -3.16775
lfingers 7.12502
lthumb 14.8026 26.2836
rfemur -35.4414 -7.75309 10.1092
rtibia 40.4284
rfoot -14.1336 -14.2237
rtoes -13.5336
lfemur -44.7436 7.7951 -18.4907
ltibia 46.5948
lfoot -19.2461 4.20984
ltoes -0.298719
533
root 7.11975 16.3846 -4.45828 -165.721 104.763 -187.43
lowerback 15.5253 2.61576 -8.95632
upperback 4.01243 2.11532 -2.02835
thorax -4.63457 1.18323 2.48398
lowerneck -30.327 5.19144 0.494956
upperneck 15.8688 8.68474 -7.40357
head 10.373 3.08244 -1.25091
rclavicle 3.49861e-014 -1.43125e-014
rhumerus -28.1444 18.3708 -89.7304
rradius 50.0127
rwrist -28.5575
rhand -12.5026 -28.7897
rfingers 7.12502
rthumb 13.5726 -58.3273
lclavicle 3.49861e-014 -1.43125e-014
lhumerus -9.34188 -50.4743 65.8823
lradius 60.1426
lwrist 3.3549
lhand -11.511 -3.19221
lfingers 7.12502
lthumb 14.5282 26.2791
rfemur -35.4075 -7.75885 9.74691
rtibia 39.4906
rfoot -13.7276 -13.8224
rtoes -16.1543
lfemur -44.0498 7.80357 -18.3078
ltibia 45.9618
lfoot -19.0631 4.25288
ltoes -1.52634
534
root 7.14349 16.406 -4.38218 -165.436 104.354 -186.942
lowerback 15.3473 2.50597 -8.75881
upperback 4.08576 2.03411 -1.90749
thorax -4.45013 1.13418 2.52643
lowerneck -30.3753 4.9713 0.200588
upperneck 15.9633 8.44121 -7.10015
head 10.3746 2.98602 -1.13893
rclavicle 3.97569e-015 -4.77083e-014
rhumerus -28.3156 18.3092 -89.2919
rradius 50.2242
rwrist -28.5042
rhand -12.6549 -28.9751
rfingers 7.12502
rthumb 13.4259 -58.5224
lclavicle 3.97569e-015 -4.77083e-014
lhumerus -9.91239 -48.8138 66.202
lradius 60.4218
lwrist 3.27676
lhand -12.399 -3.60519
lfingers 7.12502
lthumb 13.6725 25.9257
rfemur -35.2651 -7.78529 9.23928
rtibia 38.3426
rfoot -13.6595 -13.6137
rtoes -17.3108
lfemur -43.4379 7.72165 -18.1875
ltibia 45.4003
lfoot -18.9195 4.24244
ltoes -2.48939
535
root 7.16452 16.4216 -4.3025 -165.385 104.196 -186.789
lowerback 15.0858 2.44715 -8.71019
upperback 3.97138 1.98592 -1.73127
thorax -4.4315 1.10896 2.70173
lowerneck -29.8035 4.90587 0.133876
upperneck 15.8474 8.34495 -7.04457
head 10.2286 2.96405 -1.13329
rclavicle 2.38542e-015 3.18055e-014
rhumerus -28.8751 18.5222 -88.9411
rradius 50.5874
rwrist -28.4484
rhand -12.6138 -29.1582
rfingers 7.12502
rthumb 13.4655 -58.703
lclavicle 2.38542e-015 3.18055e-014
lhumerus -10.9302 -47.0472 66.9199
lradius 60.6963
lwrist 3.46029
lhand -13.3794 -4.26674
lfingers 7.12502
lthumb 12.7275 25.3254
rfemur -35.2823 -7.65989 8.79338
rtibia 37.0235
rfoot -13.5544 -13.6821
rtoes -17.5689
lfemur -42.9136 7.9252 -18.0474
ltibia 44.8587
lfoot -18.8899 4.18792
ltoes -2.5526
536
root 7.18346 16.4341 -4.21649 -165.721 104.117 -187.034
lowerback 14.7698 2.3758 -8.67846
upperback 3.8687 1.92686 -1.5067
thorax -4.37096 1.07659 2.94127
lowerneck -29.2181 4.82274 -0.00545625
upperneck 15.7302 8.22962 -6.89608
head 10.0709 2.94028 -1.08684
rclavicle 9.14409e-015 -6.36111e-015
rhumerus -29.51 18.8415 -88.6604
rradius 51.1459
rwrist -28.3402
rhand -12.7673 -29.1919
rfingers 7.12502
rthumb 13.3175 -58.7464
lclavicle 9.14409e-015 -6.36111e-015
lhumerus -12.193 -45.0938 67.8277
lradius 60.9891
lwrist 4.07407
lhand -14.7819 -5.12788
lfingers 7.12502
lthumb 11.3751 24.5436
rfemur -35.3184 -7.40779 8.44708
rtibia 35.5924
rfoot -13.1821 -13.9471
rtoes -17.6982
lfemur -42.3775 8.14634 -17.7617
ltibia 44.3134
lfoot -18.866 4.22623
ltoes -2.62548
